<svg xmlns="http://www.w3.org/2000/svg" viewBox="0 0 1600 2162.99" width="1600" height="2162.99"><title>4세기 · 근초고왕</title><metadata>Textbook-based schematic historical territories. Coastline: Natural Earth public domain. [[&quot;지학사 고등학교 한국사 · 2019 검정 · 15~16쪽 지도 · PDF 17쪽&quot;, &quot;https://www.jihak.co.kr/upload/public/pdf-viewer/TB/130324.pdf#page=17&quot;]]</metadata><defs></defs><path d="M895.18,291.64L918.08,289.57L918.09,293.32L937.17,291.62L937.18,295.37L979.14,295.46L979.13,299.21L986.76,298.55L986.76,306.06L1002.01,304.76L1002.00,312.27L1040.14,309.10L1040.12,316.61L1059.18,318.82L1059.17,322.57L1070.62,321.66L1070.60,325.41L1078.24,324.81L1078.20,332.32L1093.48,331.13L1097.25,338.35L1112.51,340.94L1116.26,351.93L1131.55,350.79L1135.32,358.03L1146.80,357.20L1146.74,364.72L1165.85,367.12L1173.38,381.64L1188.70,380.60L1188.64,388.13L1203.97,387.11L1207.70,398.17L1219.21,397.42L1219.17,401.20L1223.01,400.95L1222.82,419.83L1211.27,424.33L1211.08,443.21L1203.40,443.69L1203.36,447.46L1195.65,451.72L1195.44,470.58L1191.61,470.82L1191.56,474.59L1145.67,473.76L1145.49,488.80L1141.67,489.05L1141.29,519.13L1114.51,524.60L1114.42,532.11L1106.79,532.61L1106.74,536.36L1095.20,544.60L1095.10,552.10L1087.43,556.34L1087.33,563.83L1075.86,568.32L1075.75,575.80L1068.10,580.04L1067.99,587.51L1064.19,587.76L1060.22,599.22L1052.58,603.45L1052.46,610.91L1048.67,611.16L1048.19,641.01L1051.98,640.78L1051.85,648.26L1055.64,648.03L1055.29,666.75L1051.50,666.97L1050.61,708.27L1042.95,712.41L1042.76,719.94L1020.08,721.08L1019.98,724.84L1012.44,725.23L1012.34,728.98L1004.70,733.13L1004.49,740.64L996.95,741.03L996.73,748.54L989.09,752.69L984.84,767.92L969.81,768.71L969.68,772.47L962.17,772.88L961.90,780.39L946.76,785.00L946.61,788.75L942.87,788.97L942.41,800.25L938.66,800.47L934.59,808.22L915.70,813.14L915.52,816.90L908.04,817.40L907.86,821.16L900.38,821.68L900.19,825.44L870.11,831.55L869.91,835.31L862.44,835.98L861.81,847.27L858.07,847.61L857.85,851.38L842.90,852.85L842.44,860.40L834.96,861.19L832.73,895.46L828.98,895.88L827.90,911.29L816.63,912.63L814.61,939.99L818.37,939.52L817.77,947.44L825.31,946.54L825.01,950.52L826.04,950.41L824.42,954.60L825.57,966.52L836.28,970.35L845.07,975.24L857.40,977.70L866.52,983.21L885.93,1008.25L901.76,1019.21L905.88,1023.27L914.61,1028.54L913.38,1050.04L917.28,1049.88L916.82,1058.56L920.73,1058.41L920.08,1071.45L927.73,1075.48L927.15,1088.55L934.86,1092.57L934.52,1101.29L942.28,1105.30L941.99,1114.02L957.51,1126.39L957.30,1135.08L972.48,1134.44L973.23,1135.60L973.08,1143.08L977.07,1142.91L976.77,1164.56L968.72,1169.25L964.59,1186.74L956.57,1187.12L952.52,1200.26L948.51,1200.46L944.50,1209.27L888.39,1212.27L880.42,1199.85L872.44,1200.35L872.47,1196.04L852.80,1180.10L853.10,1167.09L833.93,1151.13L835.67,1116.02L831.77,1116.33L832.57,1103.11L824.80,1103.77L825.09,1099.36L817.35,1100.05L814.10,1091.59L802.57,1092.70L802.89,1088.31L799.06,1088.70L796.91,1067.19L793.10,1067.62L790.34,1054.99L786.54,1055.44L787.96,1038.13L784.17,1038.62L784.89,1030.02L762.22,1033.21L716.69,1044.23L712.21,1053.15L700.93,1054.84L699.19,1075.67L695.43,1076.20L682.83,1094.38L667.48,1100.49L663.11,1109.22L655.58,1110.17L655.29,1114.28L647.75,1115.21L647.47,1119.31L639.93,1120.22L639.65,1124.31L628.32,1125.66L628.06,1129.73L624.27,1130.17L623.08,1150.48L611.74,1151.72L608.39,1144.06L593.88,1145.69L589.46,1144.65L589.60,1142.17L584.31,1142.77L581.12,1140.59L578.88,1134.03L595.36,1123.15L600.96,1120.62L596.78,1117.34L592.17,1115.73L574.64,1117.83L565.44,1113.20L552.10,1114.68L549.18,1113.52L549.62,1106.11L562.04,1097.14L562.90,1088.94L562.67,1082.72L564.37,1079.50L566.83,1077.41L567.03,1074.46L572.07,1064.89L579.33,1063.95L579.61,1059.96L587.68,1054.95L587.99,1050.68L607.55,1039.46L618.60,1037.44L626.59,1038.02L633.15,1036.67L626.27,1031.10L619.53,1028.54L606.42,1029.06L592.82,1020.67L591.62,1011.81L592.03,1010.93L594.77,1010.55L600.05,993.89L612.15,984.42L612.97,972.48L621.07,967.34L623.11,935.60L615.26,936.79L616.46,917.08L608.58,918.26L608.81,914.33L595.50,916.31L593.05,915.59L593.21,912.75L584.45,914.03L561.35,899.63L551.66,891.98L547.86,894.23L547.16,906.37L544.51,908.44L541.93,908.44L538.53,897.29L534.20,897.89L528.88,887.55L512.82,877.35L507.05,871.71L509.81,859.53L507.19,857.43L498.56,869.35L481.65,880.69L445.51,883.22L434.08,875.16L429.93,880.71L426.74,888.16L417.26,890.64L402.42,891.31L394.14,896.21L389.71,901.69L369.38,903.47L361.93,910.75L349.29,913.34L296.46,945.14L284.97,958.50L274.08,974.07L266.42,981.91L259.59,987.38L253.35,989.62L247.25,995.01L241.06,995.69L234.75,993.24L227.69,994.08L223.04,1000.61L226.97,1009.09L224.83,1012.67L214.30,1016.17L217.76,984.59L227.96,979.90L222.50,964.86L226.36,958.30L236.11,947.65L242.45,942.38L239.00,940.45L211.77,943.80L212.40,926.30L216.47,925.85L220.83,917.67L228.98,916.76L229.13,912.89L245.45,911.05L245.60,907.18L253.92,902.38L254.37,890.77L266.94,881.62L267.24,873.87L271.33,873.40L271.48,869.53L288.32,856.00L288.61,848.26L292.71,847.78L291.42,767.07L299.62,766.11L304.30,746.33L324.80,743.91L325.12,732.35L346.02,714.51L346.38,699.13L350.47,698.64L350.64,690.95L354.74,690.47L355.04,675.10L359.14,674.62L363.50,658.79L375.88,649.67L376.19,626.69L388.42,625.25L400.79,608.52L437.37,604.20L437.39,600.38L445.52,595.61L445.55,587.99L457.70,582.75L457.71,578.95L485.98,575.62L485.97,571.82L490.00,571.34L489.90,540.99L485.88,541.46L485.45,477.00L489.45,476.55L493.34,464.73L505.26,459.61L505.01,436.89L512.97,436.01L516.80,424.23L528.70,422.92L528.55,411.58L532.51,411.14L532.41,403.58L540.33,402.72L544.06,387.18L548.01,386.75L547.96,382.98L567.67,380.85L571.44,369.11L587.16,367.43L590.96,359.47L606.64,357.81L606.58,354.04L618.32,352.80L618.26,349.04L633.88,347.40L633.76,339.87L668.72,332.47L668.66,328.71L676.43,327.92L676.37,324.15L711.16,316.85L711.11,313.09L730.41,311.16L730.36,307.40L780.35,298.71L780.30,294.96L895.16,287.89L895.18,291.64Z" fill="#86b7cf" fill-opacity=".68" fill-rule="evenodd" stroke="#5c6957" stroke-opacity=".75" stroke-width="1.15" stroke-linejoin="round" stroke-dasharray="4 2" vector-effect="non-scaling-stroke"><title>고구려</title></path><path d="M764.18,1054.04L779.31,1052.06L778.96,1056.38L782.75,1055.91L781.69,1068.94L785.49,1068.49L784.80,1077.21L788.61,1076.78L787.27,1094.27L794.91,1093.47L794.59,1097.86L817.06,1104.45L816.49,1113.26L827.62,1121.06L826.26,1147.39L830.18,1147.07L833.44,1164.21L841.21,1167.96L840.89,1180.96L852.72,1184.42L852.59,1193.05L864.46,1200.85L868.41,1213.46L896.40,1216.10L900.45,1224.43L936.54,1222.55L936.66,1235.39L920.80,1248.96L920.97,1257.44L913.05,1262.05L913.37,1274.69L901.49,1279.44L901.61,1283.62L893.63,1283.98L890.07,1296.64L866.53,1305.92L866.88,1314.12L855.39,1322.76L856.00,1334.93L852.05,1335.07L855.92,1398.74L836.28,1399.21L837.96,1422.51L834.04,1422.60L834.91,1434.14L827.39,1438.13L827.98,1445.77L820.47,1449.73L821.08,1457.33L817.18,1457.41L817.80,1464.98L813.90,1465.05L823.06,1568.89L826.95,1568.85L827.44,1574.17L826.27,1575.50L824.11,1582.09L818.26,1586.83L802.45,1576.31L804.70,1568.84L811.56,1561.64L812.41,1554.17L810.15,1549.75L787.53,1568.60L774.88,1587.95L766.00,1588.12L763.03,1582.90L758.67,1580.67L750.16,1588.43L743.15,1588.57L740.62,1603.19L734.08,1603.37L732.89,1601.11L732.70,1591.26L730.12,1582.94L726.42,1580.06L730.47,1577.96L728.57,1557.28L734.59,1557.03L732.55,1551.99L729.19,1549.59L736.06,1546.75L741.79,1540.93L737.04,1539.35L729.78,1542.72L727.17,1542.00L726.79,1537.75L722.99,1536.69L721.34,1527.11L713.98,1512.77L710.18,1498.84L717.44,1490.81L721.14,1478.32L727.89,1460.21L731.27,1454.34L740.63,1450.08L743.95,1445.38L738.82,1442.97L730.62,1440.84L730.82,1435.60L736.41,1432.73L742.65,1426.95L754.76,1419.91L758.49,1406.61L754.99,1403.27L747.45,1400.10L749.14,1393.37L752.26,1388.25L751.09,1385.17L742.18,1376.49L736.25,1368.58L738.01,1359.55L736.65,1345.88L737.46,1334.38L737.07,1328.15L732.72,1314.09L730.74,1300.00L725.02,1302.05L720.39,1305.55L703.86,1300.59L698.65,1300.28L696.53,1289.80L702.45,1276.87L703.85,1275.73L710.18,1273.09L710.17,1270.60L716.50,1265.45L724.57,1264.04L730.67,1259.00L740.16,1257.42L751.55,1265.17L761.77,1266.73L767.45,1280.12L770.94,1282.94L771.67,1278.03L779.92,1272.26L781.89,1267.91L780.11,1265.53L770.61,1263.16L762.08,1246.52L760.90,1239.25L757.79,1234.61L762.41,1221.29L752.54,1206.06L747.74,1201.26L748.43,1187.55L740.41,1174.01L738.65,1165.71L740.16,1161.98L744.65,1160.56L746.03,1157.07L744.91,1155.97L739.63,1155.09L718.42,1144.29L700.98,1150.90L699.03,1154.71L689.24,1155.70L685.00,1145.43L673.64,1144.91L655.60,1130.11L650.37,1132.14L650.96,1122.95L666.28,1117.01L666.87,1108.75L674.38,1107.80L674.69,1103.66L682.20,1102.70L686.59,1093.88L694.09,1092.89L698.85,1079.85L706.70,1074.62L711.86,1057.33L719.37,1056.22L719.73,1052.03L727.25,1050.91L727.61,1046.70L765.27,1041.19L764.18,1054.04ZM723.41,1326.21L721.97,1334.62L715.03,1329.07L713.05,1310.59L720.17,1315.98L723.41,1326.21ZM727.93,1179.74L724.01,1177.98L722.32,1174.58L718.36,1158.37L722.78,1151.67L731.35,1156.98L734.19,1163.03L733.70,1180.49L727.93,1179.74Z" fill="#e7b579" fill-opacity=".68" fill-rule="evenodd" stroke="#5c6957" stroke-opacity=".75" stroke-width="1.15" stroke-linejoin="round" stroke-dasharray="4 2" vector-effect="non-scaling-stroke"><title>백제</title></path><path d="M988.68,1177.00L992.69,1176.82L996.66,1193.87L1008.71,1201.92L1008.79,1214.79L1012.80,1214.60L1012.88,1223.16L1016.90,1222.97L1017.00,1231.52L1021.01,1231.32L1021.63,1265.35L1025.64,1265.14L1026.03,1381.71L1030.02,1381.49L1030.86,1397.60L998.99,1399.08L1000.61,1426.70L1028.90,1433.27L1029.13,1437.14L1033.10,1436.94L1034.04,1452.36L1026.36,1456.57L1027.59,1475.60L1016.24,1483.66L1016.76,1491.19L1005.18,1495.38L1005.56,1500.72L1001.49,1502.86L997.83,1503.13L997.88,1503.83L991.38,1505.57L972.10,1506.54L956.09,1503.26L950.52,1504.22L945.75,1493.15L941.82,1493.22L940.67,1478.16L928.55,1474.58L911.06,1452.01L903.17,1452.14L902.60,1444.47L898.66,1444.54L897.53,1429.10L893.58,1429.18L889.08,1421.49L877.25,1421.72L876.97,1417.83L873.03,1417.91L872.21,1406.22L860.40,1406.47L856.65,1347.03L860.60,1346.89L859.74,1330.73L863.70,1330.58L866.88,1314.12L870.85,1313.96L874.47,1305.58L886.40,1305.08L886.24,1300.95L902.04,1296.12L901.75,1287.80L917.49,1278.71L920.97,1257.44L928.99,1257.05L928.83,1248.56L932.84,1248.37L932.71,1239.85L940.68,1235.19L944.54,1217.86L952.55,1213.17L956.54,1195.75L968.58,1190.86L968.62,1182.23L972.62,1182.04L976.69,1173.22L988.71,1172.68L988.68,1177.00Z" fill="#a4c77c" fill-opacity=".68" fill-rule="evenodd" stroke="#5c6957" stroke-opacity=".75" stroke-width="1.15" stroke-linejoin="round" stroke-dasharray="4 2" vector-effect="non-scaling-stroke"><title>신라</title></path><path d="M865.16,1418.07L877.53,1425.60L882.32,1437.11L894.14,1436.91L895.29,1452.27L899.23,1452.20L899.52,1456.03L911.34,1455.83L917.03,1478.56L933.07,1482.08L934.53,1500.86L923.04,1504.79L924.86,1527.12L899.99,1527.46L898.77,1527.01L892.68,1515.73L886.46,1516.15L879.73,1520.30L846.01,1520.73L842.76,1528.18L827.18,1528.39L821.70,1464.91L833.11,1460.91L835.81,1445.63L843.63,1445.48L842.45,1430.14L853.93,1426.05L853.08,1414.43L864.88,1414.18L865.16,1418.07Z" fill="#c2add3" fill-opacity=".68" fill-rule="evenodd" stroke="#5c6957" stroke-opacity=".75" stroke-width="1.15" stroke-linejoin="round" stroke-dasharray="4 2" vector-effect="non-scaling-stroke"><title>가야</title></path></svg>
