<svg xmlns="http://www.w3.org/2000/svg" viewBox="0 0 1600 1122.82" width="1600" height="1122.82"><title>1932년 · 의거 당시</title><metadata>Textbook-based schematic historical territories. Coastline: Natural Earth public domain. [[&quot;역사 내용 근거&quot;, &quot;https://www.suneung.re.kr/boardCnts/view.do?boardID=1500234&amp;boardSeq=5093798&amp;m=0403&amp;s=suneung&quot;]]</metadata><defs><pattern id="hatch-0" width="9" height="9" patternUnits="userSpaceOnUse" patternTransform="rotate(35)"><rect width="9" height="9" fill="#a9c98a"/><path d="M0 0V9" stroke="#546749" stroke-opacity=".45" stroke-width="2"/></pattern></defs><path d="M628.58,604.27L627.90,602.45L629.65,598.99L636.78,593.28L655.25,587.78L658.57,587.54L665.87,589.89L667.42,594.31L666.08,598.11L664.41,600.65L655.96,604.94L649.38,607.00L636.23,607.91L633.91,609.27L631.75,608.45L628.58,604.27ZM655.48,535.09L658.22,538.33L659.09,541.31L654.92,540.75L652.70,537.89L653.00,535.44L655.48,535.09ZM631.07,526.52L632.13,524.61L637.10,525.76L638.96,528.70L636.67,533.18L631.42,536.68L628.11,537.64L626.26,535.48L624.96,534.91L625.70,532.08L631.07,526.52ZM622.04,507.39L619.74,505.51L623.40,502.53L628.05,507.88L628.23,514.08L627.55,515.59L625.30,515.14L623.00,510.82L622.04,507.39ZM640.91,402.24L640.20,406.39L636.77,403.66L635.80,394.53L639.31,397.20L640.91,402.24ZM638.42,319.41L640.60,316.10L644.83,318.72L646.23,321.71L645.99,330.32L643.14,329.95L641.20,329.09L640.37,327.41L638.42,319.41ZM564.36,198.01L562.85,202.79L559.94,204.72L559.80,201.28L562.04,198.39L564.36,198.01ZM711.63,523.30L709.02,520.37L711.59,517.15L712.21,521.36L711.63,523.30ZM716.05,513.84L714.23,508.91L713.92,505.07L718.22,502.14L720.81,503.90L724.54,504.81L725.98,509.38L725.40,515.53L721.75,515.83L719.58,511.87L717.26,513.80L716.05,513.84ZM757.06,496.61L759.84,496.31L760.83,509.84L755.96,513.72L749.40,508.52L747.83,505.65L752.82,501.43L757.06,496.61ZM791.49,351.78L795.78,365.74L796.19,374.37L798.63,386.21L796.54,392.99L797.16,403.65L796.24,409.11L794.46,413.14L794.39,420.85L794.96,424.98L795.02,430.44L796.17,432.57L797.85,433.35L800.50,431.37L803.76,430.54L803.19,437.10L799.25,453.67L795.83,465.70L791.17,476.16L785.25,485.69L778.16,489.43L773.17,490.76L763.65,491.25L755.75,489.62L748.95,490.80L746.22,492.79L744.20,496.18L745.69,501.44L745.49,505.33L742.59,505.03L736.82,502.77L730.44,502.46L727.46,501.35L724.45,495.78L721.38,495.99L716.04,499.29L707.86,500.02L704.98,501.80L703.97,504.11L705.16,507.02L709.27,510.85L707.89,514.71L703.61,516.65L700.15,511.89L697.99,507.23L695.58,506.97L691.83,508.30L691.08,513.33L692.82,516.76L695.70,520.72L691.67,525.28L690.61,528.53L687.72,530.87L679.92,525.68L681.03,521.99L684.42,518.44L684.83,514.75L683.72,512.57L672.56,521.87L665.68,532.40L662.00,531.64L660.46,528.93L658.31,527.83L650.88,534.61L649.52,539.99L646.78,540.19L645.59,537.92L645.49,533.06L644.22,528.95L636.52,522.96L633.00,517.71L634.89,514.78L641.32,516.37L646.43,516.16L645.42,513.67L643.76,512.49L647.15,511.09L649.98,508.22L647.64,507.44L644.05,509.10L641.07,508.28L639.89,501.40L636.26,494.32L634.38,487.44L637.96,483.48L639.79,477.32L643.12,468.38L644.79,465.48L649.41,463.38L651.05,461.06L648.51,459.87L644.47,458.82L644.57,456.23L647.32,454.82L650.40,451.97L656.38,448.49L658.22,441.93L656.50,440.28L652.77,438.71L653.61,435.39L655.15,432.86L654.57,431.34L650.17,427.06L647.25,423.15L648.11,418.70L647.44,411.95L647.84,406.28L647.65,403.20L645.50,396.26L644.53,389.31L641.70,390.32L639.42,392.05L631.26,389.60L628.69,389.45L627.64,384.28L630.56,377.89L637.50,372.26L641.48,371.56L644.49,369.07L649.17,368.29L654.80,372.12L659.84,372.89L662.65,379.49L664.36,380.89L664.73,378.46L668.80,375.62L669.77,373.47L668.89,372.30L664.20,371.13L659.99,362.91L659.41,359.32L657.88,357.03L660.16,350.46L655.29,342.94L652.92,340.58L653.26,333.81L649.30,327.12L648.43,323.03L649.17,321.19L651.39,320.49L652.07,318.77L651.52,318.22L648.92,317.79L638.45,312.46L629.84,315.72L627.67,319.95L625.38,321.31L621.95,313.02L616.35,312.77L607.44,305.46L603.61,306.94L602.64,309.88L597.76,316.60L590.93,322.14L588.73,322.87L586.21,322.49L586.57,320.96L583.78,314.74L573.00,312.22L569.12,309.57L567.16,308.99L577.71,302.02L580.47,300.77L578.41,299.16L576.13,298.36L567.48,299.40L562.94,297.12L556.36,297.85L551.79,296.03L561.27,289.19L561.69,285.14L561.58,282.07L566.39,272.95L571.22,267.89L583.72,260.72L589.18,259.72L593.13,260.01L596.36,259.34L592.96,256.59L589.64,255.33L583.17,255.59L576.46,251.45L575.86,247.07L588.89,219.36L589.07,216.83L587.03,210.06L586.37,203.44L577.04,199.63L572.91,199.18L560.92,191.70L556.14,187.93L554.26,189.04L553.92,195.03L552.22,196.36L549.07,197.52L547.49,190.69L544.90,185.75L536.97,180.71L534.12,177.93L535.49,171.92L534.82,171.38L536.08,164.63L540.96,159.40L552.90,150.10L555.97,145.73L562.03,140.57L564.76,140.68L567.58,140.24L569.08,136.22L571.51,134.62L577.34,131.77L583.97,128.02L589.26,126.98L598.39,118.87L601.04,118.87L603.27,114.80L605.33,112.89L608.21,112.52L612.90,111.14L618.79,110.30L622.80,105.55L624.16,102.16L626.81,98.42L632.44,94.35L640.61,81.75L642.66,79.65L644.67,79.23L645.86,76.75L647.23,69.76L649.20,62.95L650.39,59.73L655.33,56.21L656.60,54.51L657.71,53.93L660.01,54.39L665.99,50.04L668.63,50.84L671.33,52.74L674.13,56.52L675.37,59.53L677.60,62.05L678.02,65.69L680.24,67.29L684.94,68.09L692.66,70.57L697.65,70.71L700.50,72.57L706.46,73.59L718.38,72.13L723.26,72.99L725.30,75.27L728.32,77.08L730.29,77.18L732.92,74.07L737.60,65.12L737.51,62.05L735.89,58.73L731.96,55.65L726.93,45.92L725.47,44.31L724.28,41.91L724.06,38.22L724.91,35.73L730.85,34.06L738.47,33.08L744.63,34.12L754.93,33.42L761.24,32.04L770.24,32.21L772.16,30.08L778.18,24.96L781.09,23.14L784.28,19.67L785.43,13.09L787.23,9.94L790.38,6.05L793.07,4.25L796.06,4.49L799.22,6.27L801.22,8.07L803.49,7.55L805.36,4.49L806.60,3.90L810.21,3.63L811.34,1.75L811.61,0.00L853.82,0.00L854.41,1.77L857.70,5.90L859.44,8.92L859.77,12.04L861.28,13.80L858.66,15.73L855.19,14.56L849.42,13.86L842.05,19.97L837.97,22.12L835.09,28.12L829.33,31.68L826.18,35.48L822.10,42.03L819.43,48.35L813.23,54.80L809.62,62.90L809.42,69.84L813.37,76.92L813.72,82.95L810.95,95.31L812.49,108.41L810.77,113.53L791.80,122.46L786.84,126.90L779.86,138.45L771.37,142.74L766.09,147.44L758.78,150.21L754.10,158.30L748.97,162.87L742.86,165.66L738.30,169.23L728.07,169.46L720.86,171.95L715.72,178.66L700.29,186.32L698.19,192.11L699.21,201.02L699.30,207.82L697.95,213.42L694.58,211.84L692.76,213.67L690.76,218.84L691.33,224.72L696.62,226.61L700.95,229.02L707.04,230.23L711.54,232.96L721.12,245.32L728.93,250.72L730.97,252.73L735.45,255.44L739.59,259.69L741.92,263.49L754.52,292.95L766.58,311.89L776.85,325.57L791.49,351.78ZM872.45,333.64L874.03,335.20L873.08,338.54L870.74,340.47L867.96,338.54L867.63,336.49L869.08,334.72L872.45,333.64Z" fill="url(#hatch-0)" fill-opacity=".68" fill-rule="evenodd" stroke="#5c6957" stroke-opacity=".75" stroke-width="1.15" stroke-linejoin="round" stroke-dasharray="4 2" vector-effect="non-scaling-stroke"><title>조선 · 일제강점기</title></path><path d="M210.41,1122.74L211.25,1120.48L211.81,1119.85L215.26,1121.77L215.79,1122.82L210.41,1122.74ZM388.13,710.23L378.65,704.53L373.00,697.59L372.19,694.72L378.79,695.21L385.25,697.69L386.67,701.50L389.28,702.70L391.05,704.92L403.01,710.08L404.83,711.64L405.82,713.70L401.57,715.43L388.13,710.23ZM421.05,803.25L414.14,802.53L411.76,799.52L411.33,794.79L418.61,794.99L427.59,799.27L429.54,801.45L428.18,805.50L427.43,806.67L421.05,803.25ZM417.23,819.67L415.11,819.04L416.12,816.85L419.08,816.29L421.42,821.13L421.81,822.42L421.63,823.54L417.23,819.67ZM431.87,812.10L430.03,807.20L431.02,805.99L433.63,806.29L433.75,809.74L433.24,812.49L431.87,812.10ZM294.21,1069.72L294.16,1066.17L295.38,1062.98L293.99,1060.67L295.36,1057.93L298.22,1057.11L299.22,1058.82L300.84,1059.73L301.34,1060.66L301.35,1062.46L299.82,1065.43L301.03,1067.04L300.43,1068.33L296.60,1070.98L294.21,1069.72ZM368.08,917.70L368.21,913.45L371.90,909.40L373.39,910.75L374.24,912.86L374.26,916.30L369.77,917.70L368.08,917.70ZM811.34,1.75L810.21,3.63L806.60,3.90L805.36,4.49L803.49,7.55L801.22,8.07L799.22,6.27L796.06,4.49L793.07,4.25L790.38,6.05L787.23,9.94L785.43,13.09L784.28,19.67L781.09,23.14L778.18,24.96L772.16,30.08L770.24,32.21L761.24,32.04L754.93,33.42L744.63,34.12L738.47,33.08L730.85,34.06L724.91,35.73L724.06,38.22L724.28,41.91L725.47,44.31L726.93,45.92L731.96,55.65L735.89,58.73L737.51,62.05L737.60,65.12L732.92,74.07L730.29,77.18L728.32,77.08L725.30,75.27L723.26,72.99L718.38,72.13L706.46,73.59L700.50,72.57L697.65,70.71L692.66,70.57L684.94,68.09L680.24,67.29L678.02,65.69L677.60,62.05L675.37,59.53L674.13,56.52L671.33,52.74L668.63,50.84L665.99,50.04L660.01,54.39L657.71,53.93L656.60,54.51L655.33,56.21L650.39,59.73L649.20,62.95L647.23,69.76L645.86,76.75L644.67,79.23L642.66,79.65L640.61,81.75L632.44,94.35L626.81,98.42L624.16,102.16L622.80,105.55L618.79,110.30L612.90,111.14L608.21,112.52L605.33,112.89L603.27,114.80L601.04,118.87L598.39,118.87L589.26,126.98L583.97,128.02L577.34,131.77L571.51,134.62L569.08,136.22L567.58,140.24L564.76,140.68L562.03,140.57L555.97,145.73L552.90,150.10L540.96,159.40L536.08,164.63L534.82,171.38L534.19,170.88L529.93,176.76L521.59,182.36L503.75,183.61L498.11,179.63L496.06,182.37L494.49,186.04L489.81,187.27L482.48,187.60L478.40,190.02L476.21,192.72L466.18,193.60L462.50,197.19L456.26,198.47L430.19,214.17L424.52,220.76L419.14,228.45L415.36,232.31L411.99,235.01L408.91,236.12L405.90,238.78L402.85,239.12L399.73,237.91L396.24,238.32L393.95,241.55L395.89,245.73L394.83,247.50L387.98,249.77L377.81,251.27L373.49,254.00L372.00,255.55L369.73,256.34L367.57,250.93L366.80,243.80L371.01,242.09L374.88,241.19L396.38,231.32L393.68,223.90L395.59,220.66L400.40,215.41L403.53,212.81L401.83,211.85L387.74,213.59L379.65,213.46L375.51,212.92L376.76,208.42L376.07,203.92L375.10,202.23L382.27,197.11L385.52,195.84L388.00,195.92L387.83,192.81L385.77,188.14L387.99,182.10L402.63,174.99L406.14,168.53L412.02,162.50L422.76,147.46L423.40,144.89L426.52,137.83L427.10,135.00L422.13,130.87L420.15,125.05L405.61,114.57L404.38,105.54L403.02,105.93L400.81,112.26L398.93,114.29L392.20,114.48L389.01,112.09L370.30,110.53L365.73,114.60L361.44,120.90L357.28,125.40L353.10,127.70L349.46,131.80L334.41,156.07L328.72,157.90L301.96,172.50L288.57,178.21L278.25,188.30L274.70,194.40L271.55,201.15L269.66,211.37L260.14,223.76L256.87,226.41L253.54,227.48L249.11,227.10L245.29,227.88L238.78,226.79L230.81,230.70L221.82,234.09L214.08,225.57L208.56,223.46L199.52,225.83L195.34,229.61L186.67,248.31L183.42,258.99L183.63,263.38L188.70,276.63L194.41,284.04L207.22,292.47L234.49,298.28L240.88,296.22L247.74,296.20L254.97,301.70L259.49,310.78L260.05,319.11L261.69,320.94L262.67,324.06L259.79,326.65L257.59,327.93L255.74,337.52L255.62,348.11L257.97,351.62L263.84,356.54L272.90,360.61L281.29,361.49L297.32,359.53L303.87,353.16L303.48,350.40L303.63,346.83L317.72,337.46L325.76,329.15L324.50,326.95L322.95,325.48L324.37,324.62L328.78,324.04L348.39,315.36L363.82,322.46L372.62,330.62L381.32,332.00L387.37,336.16L394.33,339.72L403.43,339.96L411.09,340.69L413.43,337.41L415.83,335.26L418.56,335.69L421.63,339.99L430.33,343.30L438.36,343.12L443.99,341.92L447.33,343.45L442.49,348.97L443.22,357.84L439.51,360.64L435.96,365.15L438.06,368.12L439.92,369.39L439.73,372.99L436.49,375.04L430.50,380.39L427.06,380.28L425.41,379.25L424.24,377.34L423.39,374.26L421.29,372.23L415.46,371.45L409.43,372.18L395.85,380.12L382.61,386.44L368.72,391.45L364.07,394.61L360.77,395.47L355.02,393.08L351.53,393.23L350.80,394.88L355.23,399.27L356.39,402.71L355.91,405.35L353.40,406.51L349.74,404.57L346.40,407.33L344.89,411.98L344.82,423.01L342.60,425.47L336.48,426.83L329.96,430.33L327.65,428.71L326.72,426.74L327.40,421.66L326.59,419.19L323.62,419.32L319.14,420.83L315.72,424.17L314.54,426.17L319.04,432.65L323.34,433.30L324.38,434.76L320.98,437.92L312.50,442.62L311.09,446.55L308.58,450.31L305.12,453.30L302.77,456.45L299.90,458.09L295.21,459.94L289.47,467.47L285.24,474.52L280.24,478.14L276.28,489.99L269.20,496.42L266.60,506.68L268.44,512.99L276.20,512.93L280.09,515.14L288.15,523.42L297.79,528.81L307.80,531.84L320.08,539.48L323.44,542.71L326.33,549.26L331.65,568.11L335.47,577.42L335.73,582.27L341.45,591.42L347.59,607.11L354.64,620.67L355.99,631.33L353.70,636.19L353.71,642.49L360.77,648.27L376.43,654.98L378.93,656.96L381.99,660.21L382.14,670.32L384.56,673.55L386.61,675.51L396.09,679.78L400.06,683.32L404.25,688.99L405.49,694.05L406.00,700.90L400.70,701.15L396.43,700.38L379.46,691.48L375.04,691.24L368.82,692.48L359.92,690.83L350.54,680.96L343.77,677.95L336.52,676.44L319.18,684.95L314.77,684.35L311.53,686.76L319.57,688.58L327.61,685.80L335.34,681.68L346.61,683.88L348.50,687.58L350.34,693.85L358.06,698.07L364.15,699.94L371.86,705.48L379.41,714.12L395.39,724.14L401.85,733.61L404.36,739.71L406.60,748.42L401.00,751.22L396.14,751.62L388.52,752.99L382.91,756.07L377.29,761.48L361.17,769.96L358.10,775.26L356.00,779.88L352.08,782.15L342.19,779.98L332.89,780.17L322.35,786.40L319.72,788.93L323.13,787.63L327.87,788.56L335.20,785.23L342.37,795.38L356.36,793.74L369.52,785.31L374.61,785.17L378.87,786.47L383.62,789.80L396.28,804.57L403.22,806.18L410.03,809.63L413.80,810.01L417.18,811.05L408.04,816.44L396.21,828.08L390.95,830.85L387.42,833.96L396.93,832.40L403.71,826.84L407.12,825.47L409.87,826.77L411.27,833.61L408.66,854.65L405.34,855.02L402.11,849.29L398.32,847.48L395.15,848.68L388.84,848.64L386.43,851.22L384.40,854.87L388.18,855.63L395.61,862.00L396.37,865.39L394.38,867.59L389.16,866.65L395.48,871.39L393.81,876.31L391.76,878.26L388.08,879.50L385.82,883.75L389.06,890.82L392.36,899.89L392.77,904.26L387.61,902.37L379.59,907.91L375.34,908.36L372.48,901.09L368.81,902.23L366.37,904.35L363.12,912.16L359.15,919.19L355.74,921.13L351.64,920.58L348.27,920.78L349.08,922.68L352.67,924.99L352.67,927.70L345.04,936.27L343.81,939.58L343.99,942.40L340.00,945.82L342.15,951.56L341.03,955.61L337.54,961.08L333.87,964.69L329.53,970.53L324.06,973.92L316.83,986.14L314.71,992.24L314.15,998.54L311.90,1000.72L308.01,1003.46L303.60,1002.07L303.46,997.88L301.54,997.52L300.45,994.77L300.14,991.26L300.60,988.44L298.77,989.30L297.64,992.58L294.73,995.25L291.69,994.17L288.42,991.99L288.51,995.14L290.25,998.30L291.00,1001.45L295.53,1002.13L298.57,1005.76L300.96,1011.32L301.44,1013.40L303.30,1015.89L303.54,1018.00L299.21,1019.96L293.82,1023.63L287.33,1029.90L281.97,1034.08L277.15,1034.12L274.22,1033.63L270.05,1031.22L265.26,1030.22L271.68,1038.67L275.20,1040.16L279.63,1039.84L283.92,1036.69L290.00,1037.02L291.52,1041.89L289.90,1047.38L286.60,1054.50L285.91,1060.65L290.02,1069.45L290.19,1072.09L288.66,1073.42L283.83,1071.09L279.83,1068.18L275.81,1068.94L271.64,1067.70L267.36,1068.74L265.61,1070.77L266.80,1074.12L270.64,1076.90L272.80,1081.17L270.22,1082.67L259.33,1081.67L256.91,1082.48L253.65,1087.18L255.78,1094.13L253.37,1098.45L248.88,1099.46L242.97,1102.95L239.32,1103.76L239.50,1105.27L242.16,1106.79L243.57,1108.85L240.36,1115.93L235.37,1118.26L227.72,1117.11L221.69,1118.69L216.49,1115.68L210.95,1115.61L207.17,1119.42L206.85,1122.82L0.00,1122.82L0.00,0.00L811.61,0.00L811.34,1.75Z" fill="#e7c89e" fill-opacity=".68" fill-rule="evenodd" stroke="#5c6957" stroke-opacity=".75" stroke-width="1.15" stroke-linejoin="round" stroke-dasharray="4 2" vector-effect="non-scaling-stroke"><title>중화민국</title></path><path d="M992.99,422.35L990.45,418.90L991.29,415.01L995.91,412.02L1000.32,418.02L999.77,420.74L997.40,423.13L992.99,422.35ZM1250.33,315.66L1253.31,314.04L1253.57,311.32L1255.34,306.49L1255.31,305.10L1251.42,304.85L1251.61,299.36L1254.52,293.93L1262.52,285.37L1264.70,283.76L1265.04,287.51L1262.60,296.35L1262.12,299.54L1268.40,300.21L1264.36,310.79L1256.47,316.14L1251.56,316.30L1250.33,315.66ZM1069.97,546.77L1067.54,544.40L1066.73,541.45L1071.34,536.82L1075.32,530.29L1078.92,527.38L1081.84,525.76L1084.11,525.81L1078.99,534.94L1080.40,541.82L1074.81,547.14L1069.97,546.77ZM848.81,787.53L845.84,780.14L851.47,775.52L859.02,780.10L860.55,781.42L857.95,787.63L852.04,788.92L848.81,787.53ZM870.73,776.79L874.32,768.95L874.70,763.19L878.05,755.92L879.48,754.32L880.53,753.74L881.68,756.00L880.38,764.91L877.04,771.65L875.34,779.62L870.82,780.26L870.73,776.79ZM825.46,668.98L823.75,668.03L826.70,665.10L826.60,663.76L824.74,661.78L826.91,654.28L826.31,651.05L834.47,649.85L835.96,652.89L836.10,662.12L830.07,668.89L825.99,671.07L825.46,668.98ZM783.82,550.76L785.28,539.79L791.59,542.04L791.49,545.40L788.62,552.11L785.26,554.64L783.82,550.76ZM789.55,538.61L787.96,536.68L791.19,527.20L790.82,523.60L791.01,521.85L797.47,516.88L798.58,517.83L798.98,519.20L798.41,521.33L798.73,526.04L793.88,533.80L794.10,537.73L793.05,540.74L789.55,538.61ZM761.86,635.68L764.18,635.46L765.86,636.26L767.97,640.53L768.75,643.06L764.97,643.41L763.38,644.00L761.32,647.10L758.35,645.96L756.51,644.51L756.08,642.45L756.92,634.97L758.92,636.63L761.86,635.68ZM839.02,656.59L838.28,654.65L844.67,650.71L849.62,651.41L847.41,654.96L845.47,657.04L840.91,657.31L839.02,656.59ZM1312.75,29.02L1311.56,23.76L1312.59,20.98L1315.91,19.04L1319.14,18.50L1316.39,28.16L1315.16,29.23L1313.98,29.61L1312.75,29.02ZM1048.53,530.52L1045.26,533.39L1044.55,530.64L1041.98,528.80L1041.66,527.37L1049.08,526.42L1051.47,527.17L1050.42,529.60L1049.46,530.84L1048.53,530.52ZM1310.57,516.67L1309.26,514.75L1309.42,511.29L1312.32,511.27L1313.88,514.37L1313.33,517.32L1310.57,516.67ZM775.21,626.63L774.05,624.65L776.00,623.59L779.86,613.53L780.57,617.52L782.08,621.49L783.58,622.11L782.12,625.00L779.95,626.07L778.17,631.51L776.87,632.17L775.21,626.63ZM793.31,610.85L795.72,607.45L796.03,605.83L798.03,601.27L801.96,599.63L803.61,599.43L800.42,604.16L799.58,607.95L795.94,610.86L793.31,610.85ZM809.02,575.97L810.32,570.43L811.21,568.60L814.26,570.42L815.26,575.41L811.69,577.98L809.02,575.97ZM952.82,554.36L954.65,552.19L956.05,549.57L957.08,549.03L957.94,551.89L958.89,552.62L957.39,555.12L952.82,554.36ZM951.25,564.55L952.00,565.20L950.25,567.26L947.61,569.31L942.83,567.79L939.81,567.70L939.39,564.29L939.77,563.04L942.76,563.21L945.27,565.48L951.25,564.55ZM810.68,700.01L814.83,695.83L815.16,698.54L811.25,703.72L809.64,704.78L810.68,700.01ZM1450.69,995.66L1451.63,995.37L1453.51,996.33L1455.59,999.86L1454.87,1001.72L1453.93,1001.77L1450.69,995.66ZM1518.94,5.67L1515.80,12.22L1513.92,19.53L1513.66,24.36L1512.96,29.00L1511.16,32.23L1508.98,34.85L1502.54,33.32L1491.94,26.64L1471.39,16.91L1446.48,0.00L1522.47,0.00L1518.94,5.67ZM1392.83,11.04L1390.89,9.82L1382.59,0.00L1409.56,0.00L1392.83,11.04ZM1361.83,0.90L1360.03,4.54L1358.63,8.67L1358.21,11.59L1358.80,14.44L1363.44,20.90L1369.16,25.70L1371.75,26.62L1377.25,26.28L1379.81,26.77L1389.02,36.41L1399.11,45.40L1401.34,48.38L1397.61,51.51L1393.52,53.06L1388.78,52.66L1384.07,51.47L1375.99,47.65L1372.54,50.91L1367.18,57.57L1364.21,64.81L1361.80,68.12L1355.88,72.49L1349.61,74.74L1346.33,73.99L1343.83,71.26L1342.41,67.98L1341.69,64.19L1343.03,55.94L1346.28,48.51L1347.53,40.91L1344.87,30.18L1343.18,27.94L1336.52,21.65L1333.44,15.51L1332.69,7.86L1333.08,3.63L1333.72,0.00L1362.70,0.00L1361.83,0.90ZM896.31,586.44L899.03,585.60L903.17,583.18L907.51,581.39L910.61,582.30L913.36,584.46L914.80,587.50L914.10,590.69L909.19,597.52L905.16,604.80L914.43,606.15L923.69,606.00L921.53,610.50L921.18,614.42L924.01,616.28L926.42,618.79L925.79,621.06L924.41,623.31L929.48,626.67L929.14,628.92L927.83,631.29L915.21,646.69L911.50,654.48L908.92,663.04L906.56,669.30L904.83,675.78L903.52,682.77L901.17,689.97L901.95,696.36L901.16,702.89L894.82,719.00L890.31,718.70L884.63,716.76L881.07,717.06L879.23,720.64L882.50,727.98L872.37,736.67L861.20,742.51L861.12,739.85L862.17,737.75L863.78,736.07L864.95,734.03L866.57,727.20L865.77,720.30L862.40,711.66L862.15,708.55L864.49,707.29L866.05,706.93L866.91,705.72L866.94,702.86L865.87,700.73L862.69,700.04L859.62,700.00L857.47,703.21L854.51,709.42L853.06,715.68L853.70,719.10L855.02,722.16L859.07,727.29L857.88,730.31L856.19,732.66L841.84,727.33L838.74,726.95L836.16,725.82L833.41,718.77L839.25,717.07L840.99,716.22L841.63,713.97L842.42,707.09L839.69,701.34L837.38,699.29L835.50,696.94L836.69,692.07L835.91,685.94L835.84,677.36L836.85,675.88L842.28,674.15L846.19,669.54L849.65,664.30L854.73,655.06L858.87,645.07L854.88,644.64L851.50,642.76L855.20,638.03L854.05,632.04L848.54,624.68L845.51,615.99L840.64,612.16L838.06,610.75L834.93,612.79L832.35,615.23L834.74,620.89L834.47,625.89L834.84,630.83L837.27,631.11L840.26,629.88L842.66,630.75L844.05,633.35L844.43,636.69L843.38,640.01L841.17,641.65L838.48,641.52L835.77,639.73L833.65,637.19L828.60,635.78L823.27,638.79L818.20,644.92L813.86,648.03L815.90,643.48L816.86,638.57L814.76,635.11L809.81,629.36L808.66,626.03L808.38,622.00L809.24,618.00L814.33,622.58L816.95,628.29L820.69,630.80L825.38,630.82L821.77,622.43L820.48,620.31L815.42,616.54L808.52,610.19L804.13,607.13L805.69,600.50L808.26,599.18L810.43,599.50L817.76,601.85L818.45,598.55L817.37,596.78L816.81,594.73L821.63,591.85L829.53,589.48L831.14,588.37L832.55,585.99L834.48,584.74L840.01,584.78L844.65,582.50L848.49,576.31L849.41,572.92L850.78,570.08L860.36,565.05L862.74,564.29L869.14,564.91L875.00,567.76L877.89,573.73L880.42,580.12L886.43,584.48L893.38,586.33L896.31,586.44ZM1065.16,545.67L1065.05,557.06L1066.08,560.88L1068.15,564.29L1067.09,569.26L1070.39,570.96L1060.58,576.62L1051.72,584.12L1048.08,589.17L1044.78,594.58L1042.87,600.29L1041.63,606.45L1038.66,604.01L1030.13,594.03L1024.72,591.28L1016.03,589.82L1013.27,590.15L995.40,599.49L993.03,606.31L988.16,616.57L985.85,619.95L983.29,620.92L981.47,622.68L979.47,631.41L973.93,636.77L970.54,636.93L964.76,635.46L962.16,636.29L965.62,627.69L960.10,626.64L954.59,626.82L954.46,621.22L951.11,618.03L953.59,613.90L953.66,610.53L955.11,608.67L955.61,605.95L955.43,603.62L952.02,602.91L949.94,601.27L950.34,595.13L948.38,594.91L943.54,595.98L933.46,600.72L930.72,600.73L934.94,597.35L943.89,592.72L947.92,590.06L956.70,582.60L962.22,579.06L965.11,572.79L966.00,568.98L967.86,565.63L969.51,560.26L972.36,558.47L977.30,553.86L980.14,554.30L983.29,559.97L987.55,564.32L990.61,563.95L996.07,561.72L998.70,561.22L1005.01,561.49L1010.69,558.73L1012.99,555.47L1013.86,551.40L1011.75,544.59L1014.48,545.28L1017.10,545.00L1023.26,540.66L1029.59,538.08L1036.17,537.43L1043.57,539.89L1050.71,543.81L1057.84,546.41L1065.16,545.67ZM1417.06,76.01L1415.22,86.57L1414.19,97.19L1414.90,114.75L1415.77,122.66L1417.43,130.29L1421.54,135.76L1426.91,139.63L1434.69,152.00L1438.86,167.12L1441.81,174.45L1444.02,182.13L1444.69,185.63L1444.74,189.15L1444.08,193.95L1444.81,197.82L1443.97,209.98L1440.49,224.00L1440.04,231.15L1437.01,232.56L1435.18,235.86L1433.61,237.39L1431.87,238.57L1429.34,238.87L1427.54,240.22L1426.82,244.00L1425.67,247.50L1423.47,250.72L1421.74,254.27L1420.32,262.92L1419.81,271.78L1417.68,277.95L1412.55,279.56L1406.67,279.45L1399.14,282.31L1397.54,283.98L1391.59,294.74L1389.88,301.03L1389.83,307.80L1391.48,316.10L1393.72,324.21L1395.42,339.27L1393.63,362.14L1391.92,369.42L1388.14,374.35L1385.27,376.64L1382.80,379.44L1379.61,386.85L1374.31,401.59L1373.88,405.28L1373.90,409.11L1372.47,414.09L1371.54,418.98L1372.41,424.67L1374.04,429.99L1381.14,443.60L1383.92,447.62L1387.05,451.28L1374.93,455.33L1372.74,457.19L1365.54,464.91L1363.25,472.23L1363.43,480.31L1362.22,483.21L1360.24,485.72L1358.18,487.39L1350.14,491.08L1344.99,494.75L1339.86,500.48L1337.83,503.49L1333.88,502.52L1331.57,499.88L1333.85,496.54L1333.15,492.62L1334.27,482.51L1332.98,478.44L1337.09,475.36L1339.05,470.44L1343.34,466.50L1346.39,463.00L1346.94,460.16L1344.19,457.10L1341.29,454.89L1337.28,454.88L1333.41,455.53L1330.91,458.45L1330.07,462.42L1330.27,464.27L1329.95,465.89L1323.87,471.32L1324.67,477.00L1326.45,479.87L1328.72,481.24L1328.04,483.19L1325.16,487.75L1323.15,488.20L1319.44,481.81L1314.81,478.32L1309.08,478.35L1303.20,479.62L1298.72,483.87L1297.24,487.40L1296.30,491.04L1296.62,499.91L1294.76,507.29L1291.13,513.77L1289.43,516.13L1284.99,520.52L1281.94,521.10L1279.75,519.11L1277.99,516.08L1280.23,504.99L1280.14,498.75L1285.35,495.57L1281.08,491.13L1275.85,489.34L1268.50,491.71L1266.43,494.38L1265.01,497.97L1261.06,502.51L1256.70,506.75L1251.78,513.98L1248.47,522.54L1237.63,519.74L1231.70,519.12L1225.73,519.33L1215.14,518.28L1203.51,520.03L1190.28,523.38L1191.07,520.96L1201.95,515.81L1202.34,514.30L1201.30,511.48L1198.59,511.34L1192.08,512.33L1188.76,511.89L1187.40,508.86L1185.20,507.56L1183.73,508.80L1184.21,514.68L1182.60,515.47L1180.45,513.95L1181.14,509.38L1179.67,502.68L1179.51,498.51L1181.78,494.92L1179.45,493.41L1176.99,494.00L1173.86,495.72L1171.10,498.16L1165.26,510.41L1162.99,517.39L1167.27,522.99L1178.92,530.81L1180.92,532.73L1180.96,536.05L1179.55,539.58L1176.37,541.13L1163.58,543.72L1152.51,548.77L1149.31,553.88L1139.23,573.58L1131.16,587.01L1119.76,591.64L1107.24,587.53L1104.22,582.86L1101.77,577.07L1097.12,571.84L1092.92,566.14L1090.47,559.36L1090.86,548.41L1089.04,541.81L1090.68,540.05L1097.58,536.03L1099.83,533.78L1103.73,528.55L1105.13,525.63L1105.34,521.21L1102.20,518.90L1094.10,518.99L1086.02,520.36L1080.25,518.43L1072.77,513.08L1070.45,511.94L1062.39,511.60L1056.63,512.59L1050.98,514.55L1045.00,515.16L1043.01,516.18L1036.10,522.74L1030.62,526.86L1025.88,528.91L1015.64,529.46L1010.51,530.78L1005.13,532.95L1003.63,532.76L997.97,535.75L991.47,538.33L987.99,540.93L981.62,539.23L969.01,543.88L962.92,544.45L956.62,541.89L950.78,537.75L945.17,539.52L941.32,545.64L939.46,557.80L937.26,563.26L936.59,569.82L933.69,568.78L916.81,556.98L915.64,556.55L902.00,558.59L898.47,559.57L894.08,561.96L889.43,563.03L885.18,561.31L881.13,558.51L877.23,559.34L873.23,561.30L871.70,543.47L872.48,541.11L874.93,537.98L877.64,535.30L884.24,534.37L890.93,535.24L895.71,534.01L899.74,530.46L904.00,525.43L908.80,521.34L915.31,518.10L921.60,514.38L927.13,509.16L932.37,503.46L937.20,499.27L942.43,495.76L950.40,487.31L960.98,477.80L965.04,470.74L967.57,468.79L976.67,464.85L988.74,461.83L994.44,461.98L1000.08,468.17L1003.11,467.32L1006.19,465.72L1012.41,464.84L1018.81,465.86L1025.05,465.89L1031.29,465.11L1043.31,463.07L1049.63,460.62L1055.80,457.45L1077.79,455.20L1092.87,449.88L1095.25,450.25L1097.57,451.48L1097.74,455.43L1095.85,459.73L1097.69,462.34L1100.75,463.94L1114.93,464.44L1118.98,465.37L1124.90,462.42L1130.48,458.78L1136.32,453.98L1140.40,448.57L1136.63,441.79L1135.81,434.37L1138.97,426.31L1143.55,419.50L1149.00,415.38L1154.01,410.63L1164.17,397.14L1171.52,386.20L1174.16,372.72L1172.61,356.72L1179.02,344.80L1185.15,342.75L1197.35,337.30L1203.75,335.70L1204.71,338.08L1204.52,341.20L1194.94,351.22L1189.46,355.34L1186.18,356.61L1183.18,358.43L1181.93,361.95L1186.81,367.83L1188.05,372.17L1187.75,376.33L1187.96,380.07L1193.48,384.14L1199.81,385.48L1202.46,385.45L1204.78,384.38L1212.01,374.42L1213.63,372.69L1234.23,365.38L1244.36,359.78L1249.96,358.34L1255.22,355.42L1267.01,344.15L1271.37,338.95L1275.32,333.19L1278.48,326.49L1280.97,319.23L1284.39,314.71L1303.08,303.90L1309.10,298.01L1311.02,295.15L1313.33,286.86L1314.93,278.24L1317.20,271.47L1320.27,265.11L1324.38,258.63L1328.99,252.60L1331.71,246.40L1335.67,231.57L1337.41,223.34L1338.77,220.37L1340.76,217.87L1342.49,214.71L1343.82,211.16L1344.42,207.65L1345.28,196.89L1344.76,188.52L1341.66,181.41L1339.11,179.39L1336.32,179.27L1332.15,179.89L1328.59,176.99L1329.31,174.42L1332.94,173.95L1335.41,172.62L1337.19,170.19L1340.51,162.42L1342.51,154.08L1342.68,150.39L1340.08,143.66L1338.01,135.54L1337.95,131.16L1340.22,126.10L1343.45,121.99L1346.34,121.02L1349.48,120.74L1352.32,119.15L1354.96,116.84L1356.45,114.29L1358.78,107.36L1359.67,103.39L1358.21,92.76L1359.71,89.85L1361.85,88.04L1364.71,89.42L1367.64,89.69L1371.05,89.27L1374.33,90.40L1374.95,93.12L1377.00,111.07L1378.19,113.49L1380.57,115.37L1383.27,115.09L1385.59,112.31L1387.16,108.59L1390.25,107.83L1399.67,111.82L1403.00,108.97L1405.18,104.57L1407.08,96.75L1406.15,89.70L1403.89,87.09L1401.55,87.56L1399.49,89.50L1397.18,90.56L1383.26,94.28L1383.32,86.40L1386.30,74.59L1387.95,70.85L1390.29,69.07L1396.14,71.13L1399.01,72.50L1405.38,78.22L1407.42,79.52L1417.06,76.01ZM531.71,1117.88L532.85,1119.06L530.95,1122.82L528.51,1122.82L531.71,1117.88ZM581.62,1109.62L582.38,1101.69L584.00,1102.81L585.01,1105.52L588.48,1107.10L590.67,1109.02L586.29,1110.50L581.62,1109.62ZM729.13,1005.43L724.54,1006.51L720.07,1010.96L715.72,1011.76L715.83,1015.33L717.67,1018.35L714.77,1018.88L711.75,1022.56L711.51,1025.23L712.59,1027.38L712.44,1028.46L708.61,1031.64L704.68,1031.78L704.50,1028.34L704.77,1025.77L708.49,1019.52L708.59,1012.26L712.05,1011.41L713.31,1010.40L718.76,1005.23L719.77,1003.03L716.95,1000.88L717.15,998.35L717.79,997.27L722.29,998.09L724.11,999.97L724.99,1000.18L727.62,998.76L728.86,996.24L733.76,991.30L735.74,986.39L739.70,990.42L738.63,995.71L735.94,999.63L730.97,1002.28L729.13,1005.43ZM769.03,937.25L768.15,930.56L769.43,927.32L771.70,926.60L773.66,932.39L775.04,934.78L774.10,937.66L771.94,938.73L769.03,937.25ZM788.38,909.61L782.69,906.74L785.40,905.97L786.99,904.82L787.14,903.00L790.84,900.30L798.17,898.21L800.50,898.08L803.13,896.11L803.98,894.34L805.06,893.48L809.78,891.04L811.08,893.85L810.86,896.05L807.31,897.27L803.85,900.21L800.66,903.87L797.77,905.42L796.85,906.45L797.55,909.13L793.10,913.89L788.38,909.61ZM786.19,915.44L784.13,910.10L787.48,911.05L788.51,912.89L790.92,915.22L791.26,916.59L786.19,915.44ZM1330.36,616.87L1330.01,615.09L1330.45,613.98L1332.07,613.73L1335.41,615.93L1333.73,618.24L1332.84,618.89L1330.36,616.87Z" fill="#dcb1b5" fill-opacity=".68" fill-rule="evenodd" stroke="#5c6957" stroke-opacity=".75" stroke-width="1.15" stroke-linejoin="round" stroke-dasharray="4 2" vector-effect="non-scaling-stroke"><title>일본</title></path><path d="M859.44,8.92L857.70,5.90L854.41,1.77L853.82,0.00L868.23,0.00L863.48,12.18L861.28,13.80L859.77,12.04L859.44,8.92Z" fill="#c6b8da" fill-opacity=".68" fill-rule="evenodd" stroke="#5c6957" stroke-opacity=".75" stroke-width="1.15" stroke-linejoin="round" stroke-dasharray="4 2" vector-effect="non-scaling-stroke"><title>소련</title></path></svg>
