<svg xmlns="http://www.w3.org/2000/svg" viewBox="0 0 1600 2430.41" width="1600" height="2430.41"><title>1273년 · 제주 항쟁 진압 뒤</title><metadata>Textbook-based schematic historical territories. Coastline: Natural Earth public domain. [[&quot;우리역사넷 · 동녕부&quot;, &quot;https://contents.history.go.kr/mobile/kc/view.do?levelId=kc_i200530&quot;]]</metadata><defs></defs><path d="M835.16,1450.11L835.98,1443.32L842.86,1442.36L850.43,1451.34L852.85,1459.57L841.29,1458.01L835.16,1450.11ZM790.78,1437.07L776.24,1446.75L767.10,1449.41L761.97,1443.45L758.37,1441.87L760.41,1434.04L775.29,1418.65L778.21,1413.34L791.98,1416.54L797.13,1424.68L790.78,1437.07ZM767.42,1384.20L765.54,1388.40L759.32,1387.14L752.94,1375.17L750.29,1365.69L743.93,1360.48L754.06,1352.23L766.94,1367.06L767.42,1384.20ZM798.09,1060.69L802.51,1074.66L800.54,1086.15L791.07,1078.57L788.37,1053.32L798.09,1060.69ZM816.57,875.59L808.69,874.57L803.33,872.18L801.03,867.52L795.62,845.38L801.66,836.23L813.37,843.48L817.24,851.75L816.57,875.59ZM998.26,1409.74L991.04,1401.61L998.16,1392.72L999.86,1404.37L998.26,1409.74ZM1023.66,1356.04L1034.00,1358.54L1037.97,1371.21L1036.38,1388.21L1026.28,1389.05L1020.26,1378.10L1013.84,1383.44L1010.49,1383.54L1005.47,1369.91L1004.60,1359.26L1016.49,1351.16L1023.66,1356.04ZM1102.79,1368.82L1098.47,1360.87L1112.28,1349.20L1124.00,1335.86L1131.70,1335.02L1134.43,1372.48L1120.95,1383.21L1102.79,1368.82ZM1233.29,1049.04L1235.00,1078.54L1232.45,1093.67L1227.51,1104.81L1227.33,1126.17L1228.92,1137.58L1229.07,1152.70L1232.25,1158.59L1236.90,1160.77L1244.25,1155.27L1253.26,1152.98L1251.67,1171.15L1240.78,1217.00L1231.31,1250.30L1218.43,1279.24L1202.02,1305.64L1182.39,1315.98L1168.58,1319.68L1142.24,1321.01L1120.37,1316.52L1101.56,1319.77L1094.01,1325.28L1088.41,1334.66L1092.52,1349.23L1091.99,1359.98L1083.96,1359.16L1068.00,1352.91L1050.33,1352.05L1042.08,1348.97L1033.75,1333.56L1025.25,1334.13L1010.46,1343.26L987.83,1345.29L979.87,1350.23L977.05,1356.61L980.36,1364.67L991.74,1375.26L987.92,1385.96L976.06,1391.31L966.49,1378.16L960.52,1365.25L953.85,1364.52L943.47,1368.21L941.38,1382.14L946.21,1391.62L954.16,1402.60L943.02,1415.21L940.08,1424.21L932.09,1430.69L910.49,1416.32L913.56,1406.11L922.94,1396.27L924.09,1386.08L921.01,1380.03L890.11,1405.78L871.07,1434.92L860.90,1432.80L856.64,1425.31L850.68,1422.27L830.12,1441.04L826.34,1455.92L818.78,1456.49L815.47,1450.19L815.21,1436.74L811.68,1425.37L790.37,1408.78L780.64,1394.26L785.87,1386.14L803.66,1390.56L817.79,1389.98L815.00,1383.09L810.41,1379.82L819.80,1375.94L827.62,1367.99L821.14,1365.83L811.22,1370.43L802.96,1368.16L799.69,1349.10L789.63,1329.52L784.44,1310.48L794.36,1299.51L799.41,1282.45L808.64,1257.71L813.25,1249.70L826.03,1243.87L830.58,1237.46L823.56,1234.17L812.36,1231.25L812.64,1224.09L820.27,1220.18L828.79,1212.28L845.34,1202.67L850.43,1184.50L845.66,1179.93L835.35,1175.60L837.67,1166.41L841.92,1159.41L840.33,1155.21L828.15,1143.35L820.06,1132.54L822.46,1120.20L820.61,1101.53L821.71,1085.83L821.18,1077.31L815.23,1058.11L812.53,1038.85L804.72,1041.66L798.40,1046.45L775.81,1039.66L768.69,1039.25L765.79,1024.93L773.88,1007.26L793.08,991.67L804.10,989.73L812.43,982.85L825.39,980.69L840.96,991.28L854.92,993.41L862.68,1011.69L867.44,1015.55L868.44,1008.84L879.72,1000.97L882.41,995.03L879.97,991.77L866.99,988.53L855.34,965.80L853.72,955.86L849.48,949.52L855.79,931.33L842.31,910.53L835.76,903.98L836.69,885.24L825.74,866.74L823.34,855.41L825.39,850.32L831.53,848.38L833.41,843.61L831.89,842.10L824.68,840.90L795.70,826.15L771.88,835.17L765.86,846.88L759.53,850.64L750.04,827.70L734.53,827.00L709.88,806.77L699.29,810.88L696.60,819.03L683.08,837.61L664.19,852.94L658.09,854.96L651.12,853.92L652.12,849.68L644.39,832.46L614.56,825.48L603.82,818.14L598.40,816.54L627.59,797.27L635.24,793.81L629.53,789.33L623.23,787.13L599.29,790.00L586.72,783.68L568.50,785.70L555.85,780.68L582.07,761.74L583.25,750.54L582.94,742.04L596.25,716.79L609.63,702.80L629.78,691.24L664.29,691.24L792.86,649.12L842.86,575.54L842.86,435.77L845.98,438.69L851.50,446.19L856.56,455.63L863.12,463.12L871.17,468.67L880.71,472.27L897.14,474.80L897.14,492.25L917.14,575.54L885.71,630.76L1017.12,630.76L998.02,606.10L1024.53,640.31L1046.15,655.28L1051.79,660.83L1064.20,668.33L1075.64,680.10L1082.09,690.61L1116.98,772.16L1150.35,824.58L1178.79,862.43L1219.31,934.99L1231.18,973.63L1232.31,997.50L1239.06,1030.28L1233.29,1049.04ZM1430.97,898.33L1430.04,892.67L1434.05,887.76L1443.39,884.78L1447.75,889.10L1445.15,898.33L1438.66,903.69L1430.97,898.33Z" fill="#a9c98a" fill-opacity=".68" fill-rule="evenodd" stroke="#5c6957" stroke-opacity=".75" stroke-width="1.15" stroke-linejoin="round" stroke-dasharray="4 2" vector-effect="non-scaling-stroke"><title>고려</title></path><path d="M1405.22,4.86L1395.61,1.60L1382.37,0.00L1411.81,0.00L1405.22,4.86ZM1359.25,16.58L1347.96,22.54L1339.98,39.15L1324.04,49.01L1315.33,59.51L1304.03,77.64L1296.62,95.14L1279.48,113.00L1269.48,135.42L1268.92,154.63L1279.85,174.23L1280.83,190.90L1273.16,225.12L1277.43,261.37L1272.67,275.53L1220.16,300.25L1206.45,312.55L1187.11,344.52L1163.60,356.38L1149.00,369.40L1128.77,377.08L1115.82,399.47L1101.60,412.12L1084.71,419.83L1072.07,429.73L1043.76,430.36L1023.80,437.25L1009.58,455.82L966.88,477.02L961.06,493.05L963.90,517.70L964.13,536.54L960.41,552.01L951.06,547.65L946.04,552.72L940.50,567.02L942.08,583.30L956.71,588.54L968.71,595.21L985.56,598.57L998.02,606.10L1017.12,630.76L885.71,630.76L917.14,575.54L897.14,492.25L897.14,474.80L880.71,472.27L871.17,468.67L863.12,463.12L856.56,455.63L851.50,446.19L845.98,438.69L842.86,435.77L842.86,575.54L792.86,649.12L664.29,691.24L629.78,691.24L644.24,682.94L659.33,680.19L670.26,680.97L679.21,679.12L669.81,671.52L660.60,668.02L642.70,668.74L624.12,657.27L622.47,645.17L658.52,568.45L659.03,561.46L653.38,542.73L651.55,524.41L625.73,513.87L614.30,512.60L581.12,491.92L567.90,481.47L562.70,484.55L561.75,501.13L557.03,504.80L548.33,508.01L543.95,489.11L536.77,475.43L514.83,461.48L506.95,453.78L510.73,437.15L507.14,434.27L495.35,450.56L472.25,466.04L422.88,469.50L407.27,458.49L401.60,466.08L397.24,476.25L384.29,479.65L364.02,480.56L352.71,487.26L346.65,494.74L318.89,497.17L308.71,507.11L291.43,510.65L219.27,554.10L203.57,572.34L188.70,593.62L178.24,604.32L168.90,611.80L160.38,614.86L152.05,622.22L143.60,623.15L134.97,619.80L125.32,620.95L118.97,629.87L124.34,641.45L121.41,646.35L102.46,652.65L74.30,656.78L62.33,664.34L58.20,668.64L51.94,670.81L45.95,655.85L43.82,636.12L55.47,631.37L66.18,628.88L125.70,601.58L118.23,581.04L123.51,572.08L136.83,557.53L145.49,550.33L140.78,547.68L101.79,552.48L79.38,552.12L67.93,550.65L71.40,538.18L69.48,525.74L66.78,521.06L86.64,506.87L95.65,503.36L102.51,503.58L102.04,494.99L96.32,482.06L102.48,465.34L143.00,445.65L152.71,427.78L168.97,411.07L198.70,369.44L200.47,362.36L209.12,342.81L210.71,334.98L196.96,323.53L191.49,307.44L151.26,278.41L147.84,253.42L144.08,254.51L137.95,272.03L132.76,277.64L114.13,278.16L105.30,271.55L53.50,267.23L40.85,278.50L28.99,295.95L17.47,308.40L5.90,314.78L0.00,321.40L0.00,0.00L1379.25,0.00L1359.25,16.58ZM35.57,853.84L59.93,876.41L84.01,880.23L100.75,891.75L120.03,901.59L145.20,902.26L166.41,904.30L172.88,895.22L179.52,889.25L187.08,890.44L195.59,902.35L219.67,911.50L241.89,911.02L257.48,907.70L266.71,911.94L253.33,927.20L255.33,951.76L245.08,959.51L235.24,972.00L241.06,980.21L246.21,983.72L245.68,993.70L236.72,999.36L220.13,1014.17L210.60,1013.88L206.04,1011.02L202.82,1005.72L200.46,997.21L194.63,991.59L178.50,989.42L161.82,991.44L124.23,1013.43L87.58,1030.91L49.15,1044.79L36.26,1053.53L27.13,1055.92L11.22,1049.30L1.55,1049.71L0.00,1053.20L0.00,837.48L35.57,853.84ZM11.80,1066.42L15.00,1075.95L13.69,1083.26L6.72,1086.47L0.00,1082.91L0.00,1054.74L11.80,1066.42ZM10.16,1679.25L13.91,1708.74L7.58,1722.18L7.60,1739.63L27.13,1755.63L70.48,1774.21L77.39,1779.68L85.85,1788.67L86.27,1816.66L92.97,1825.60L98.65,1831.03L124.89,1842.85L135.87,1852.65L147.49,1868.32L150.91,1882.33L152.33,1901.30L137.65,1901.98L125.84,1899.86L78.85,1875.21L66.63,1874.56L49.40,1877.98L24.79,1873.43L0.00,1847.35L0.00,1659.72L10.16,1679.25ZM19.64,1893.47L36.48,1898.64L57.84,1913.97L78.71,1937.90L122.95,1965.62L140.85,1991.83L147.78,2008.72L153.99,2032.82L138.49,2040.59L125.03,2041.68L103.93,2045.48L88.42,2053.99L72.85,2068.97L28.24,2092.45L19.75,2107.13L13.92,2119.90L3.07,2126.19L0.00,2125.52L0.00,1882.73L19.64,1893.47ZM14.93,2158.28L51.34,2134.95L65.43,2134.56L77.23,2138.15L90.39,2147.37L125.42,2188.25L144.61,2192.69L163.48,2202.26L173.90,2203.31L183.27,2206.17L157.97,2221.10L125.22,2253.31L110.66,2260.99L100.89,2269.60L127.20,2265.27L145.98,2249.89L155.43,2246.08L163.03,2249.68L166.91,2268.61L159.68,2326.87L150.50,2327.87L141.55,2312.04L131.07,2307.02L122.28,2310.33L104.81,2310.23L98.16,2317.36L92.52,2327.47L102.99,2329.58L123.56,2347.21L125.67,2356.59L120.15,2362.67L105.72,2360.06L123.21,2373.19L118.58,2386.80L112.90,2392.20L102.73,2395.64L96.46,2407.41L106.69,2430.41L0.00,2430.41L0.00,2160.03L14.93,2158.28ZM584.22,510.42L590.65,509.36L586.47,522.62L578.42,527.93L578.01,518.43L584.22,510.42ZM771.34,1619.23L791.10,1603.43L842.22,1588.19L851.41,1587.52L871.60,1594.05L875.89,1606.26L872.20,1616.78L867.55,1623.83L844.17,1635.71L825.96,1641.41L789.56,1643.92L783.15,1647.69L777.18,1645.42L768.39,1633.85L766.52,1628.82L771.34,1619.23Z" fill="#e7c89e" fill-opacity=".68" fill-rule="evenodd" stroke="#5c6957" stroke-opacity=".75" stroke-width="1.15" stroke-linejoin="round" stroke-dasharray="4 2" vector-effect="non-scaling-stroke"><title>원 직할지</title></path></svg>
